<svg width="30" height="30" viewBox="0 0 30 30" fill="none" xmlns="http://www.w3.org/2000/svg">
<path d="M13.6937 20.5C14.0875 20.5 14.4205 20.3639 14.6927 20.0916C14.965 19.8194 15.1007 19.4867 15.1 19.0937C15.1 18.7 14.9642 18.367 14.6927 18.0947C14.4212 17.8225 14.0882 17.6867 13.6937 17.6875C13.3 17.6875 12.9674 17.8236 12.6959 18.0959C12.4244 18.3681 12.2882 18.7007 12.2875 19.0937C12.2875 19.4875 12.4236 19.8205 12.6959 20.0927C12.9681 20.365 13.3007 20.5007 13.6937 20.5ZM12.6812 16.1687H14.7625C14.7625 15.55 14.833 15.0625 14.974 14.7062C15.115 14.35 15.5132 13.8625 16.1687 13.2437C16.6562 12.7562 17.0406 12.292 17.3219 11.851C17.6031 11.41 17.7437 10.8805 17.7437 10.2625C17.7437 9.2125 17.3594 8.40625 16.5906 7.84375C15.8219 7.28125 14.9125 7 13.8625 7C12.7937 7 11.9267 7.28125 11.2615 7.84375C10.5962 8.40625 10.132 9.08125 9.86875 9.86875L11.725 10.6C11.8187 10.2625 12.0299 9.89687 12.3584 9.50312C12.6869 9.10937 13.1882 8.9125 13.8625 8.9125C14.4625 8.9125 14.9125 9.07675 15.2125 9.40525C15.5125 9.73375 15.6625 10.0945 15.6625 10.4875C15.6625 10.8625 15.55 11.2142 15.325 11.5427C15.1 11.8712 14.8187 12.1757 14.4812 12.4562C13.6562 13.1875 13.15 13.7406 12.9625 14.1156C12.775 14.4906 12.6812 15.175 12.6812 16.1687ZM13.75 25C12.1937 25 10.7312 24.7049 9.3625 24.1146C7.99375 23.5244 6.80312 22.7226 5.79062 21.7094C4.77813 20.6969 3.97675 19.5062 3.3865 18.1375C2.79625 16.7687 2.50075 15.3062 2.5 13.75C2.5 12.1937 2.7955 10.7312 3.3865 9.3625C3.9775 7.99375 4.77887 6.80312 5.79062 5.79062C6.80312 4.77813 7.99375 3.97675 9.3625 3.3865C10.7312 2.79625 12.1937 2.50075 13.75 2.5C15.3062 2.5 16.7687 2.7955 18.1375 3.3865C19.5062 3.9775 20.6969 4.77887 21.7094 5.79062C22.7219 6.80312 23.5236 7.99375 24.1146 9.3625C24.7056 10.7312 25.0007 12.1937 25 13.75C25 15.3062 24.7045 16.7687 24.1135 18.1375C23.5225 19.5062 22.7211 20.6969 21.7094 21.7094C20.6969 22.7219 19.5062 23.5236 18.1375 24.1146C16.7687 24.7056 15.3062 25.0007 13.75 25ZM13.75 22.75C16.2625 22.75 18.3906 21.8781 20.1344 20.1344C21.8781 18.3906 22.75 16.2625 22.75 13.75C22.75 11.2375 21.8781 9.10937 20.1344 7.36562C18.3906 5.62187 16.2625 4.75 13.75 4.75C11.2375 4.75 9.10937 5.62187 7.36562 7.36562C5.62187 9.10937 4.75 11.2375 4.75 13.75C4.75 16.2625 5.62187 18.3906 7.36562 20.1344C9.10937 21.8781 11.2375 22.75 13.75 22.75Z" fill="black"/>
</svg>
