<svg width="30" height="30" viewBox="0 0 30 30" fill="none" xmlns="http://www.w3.org/2000/svg">
<path d="M26.1071 5H19.7232C18.3532 5 17.014 5.39342 15.8616 6.1356L14.5 7.00893L13.1384 6.1356C11.9872 5.39356 10.6464 4.99927 9.27679 5H2.89286C2.399 5 2 5.399 2 5.89286V21.7411C2 22.2349 2.399 22.6339 2.89286 22.6339H9.27679C10.6468 22.6339 11.986 23.0273 13.1384 23.7695L14.3772 24.5675C14.4135 24.5898 14.4554 24.6038 14.4972 24.6038C14.5391 24.6038 14.5809 24.5926 14.6172 24.5675L15.856 23.7695C17.0112 23.0273 18.3532 22.6339 19.7232 22.6339H26.1071C26.601 22.6339 27 22.2349 27 21.7411V5.89286C27 5.399 26.601 5 26.1071 5ZM9.27679 20.625H4.00893V7.00893H9.27679C10.2645 7.00893 11.2243 7.29074 12.053 7.82366L13.4146 8.69699L13.6071 8.82255V21.7132C12.279 20.9989 10.7946 20.625 9.27679 20.625ZM24.9911 20.625H19.7232C18.2054 20.625 16.721 20.9989 15.3929 21.7132V8.82255L15.5854 8.69699L16.947 7.82366C17.7757 7.29074 18.7355 7.00893 19.7232 7.00893H24.9911V20.625ZM11.2885 10.5804H6.10435C5.99554 10.5804 5.90625 10.6752 5.90625 10.7896V12.0452C5.90625 12.1596 5.99554 12.2545 6.10435 12.2545H11.2857C11.3945 12.2545 11.4838 12.1596 11.4838 12.0452V10.7896C11.4866 10.6752 11.3973 10.5804 11.2885 10.5804ZM17.5134 10.7896V12.0452C17.5134 12.1596 17.6027 12.2545 17.7115 12.2545H22.8929C23.0017 12.2545 23.091 12.1596 23.091 12.0452V10.7896C23.091 10.6752 23.0017 10.5804 22.8929 10.5804H17.7115C17.6027 10.5804 17.5134 10.6752 17.5134 10.7896ZM11.2885 14.4866H6.10435C5.99554 14.4866 5.90625 14.5815 5.90625 14.6959V15.9515C5.90625 16.0659 5.99554 16.1607 6.10435 16.1607H11.2857C11.3945 16.1607 11.4838 16.0659 11.4838 15.9515V14.6959C11.4866 14.5815 11.3973 14.4866 11.2885 14.4866ZM22.8956 14.4866H17.7115C17.6027 14.4866 17.5134 14.5815 17.5134 14.6959V15.9515C17.5134 16.0659 17.6027 16.1607 17.7115 16.1607H22.8929C23.0017 16.1607 23.091 16.0659 23.091 15.9515V14.6959C23.0938 14.5815 23.0045 14.4866 22.8956 14.4866Z" fill="black"/>
</svg>
