<svg width="30" height="30" viewBox="0 0 30 30" fill="none" xmlns="http://www.w3.org/2000/svg">
<path d="M23.151 10.3626L22.739 10.133C22.3766 9.94633 22.0716 9.6647 21.8567 9.3182C21.8376 9.28781 21.8196 9.25518 21.7836 9.19215C21.5411 8.80263 21.4233 8.34834 21.4459 7.89005L21.4527 7.41175C21.4662 6.64647 21.473 6.26158 21.3649 5.9172C21.2694 5.61077 21.1094 5.32834 20.8956 5.08889C20.6548 4.81879 20.3205 4.62522 19.6509 4.24033L19.095 3.91959C18.4287 3.53582 18.0945 3.34338 17.74 3.27022C17.4268 3.20538 17.1033 3.20806 16.7912 3.2781C16.439 3.35688 16.1092 3.55495 15.4509 3.94885L15.4475 3.9511L15.0491 4.18856C14.9861 4.22683 14.9534 4.24483 14.9219 4.26284C14.6091 4.43728 14.2602 4.53294 13.9012 4.54419C13.8652 4.54644 13.828 4.54644 13.7549 4.54644L13.6086 4.54532C13.2494 4.53401 12.8982 4.43676 12.5844 4.26171C12.5529 4.24483 12.5225 4.2257 12.4595 4.18744L12.0577 3.9466C11.3949 3.5482 11.0629 3.35013 10.7084 3.27022C10.3951 3.20004 10.0705 3.19774 9.75627 3.26347C9.40064 3.33775 9.06752 3.53132 8.40015 3.91846L8.39677 3.91959L7.84757 4.23808L7.84194 4.24258C7.1802 4.62522 6.8482 4.81879 6.60961 5.08777C6.397 5.3268 6.23778 5.60841 6.14257 5.91382C6.03565 6.25932 6.04128 6.64422 6.05478 7.414L6.06266 7.89118C6.06266 7.96433 6.06604 8.00034 6.06491 8.03523C6.05897 8.4441 5.94187 8.84364 5.72616 9.19103C5.68902 9.25405 5.67214 9.28556 5.65301 9.31483C5.46326 9.62113 5.20274 9.8774 4.89336 10.0621L4.76731 10.133L4.36104 10.3581C3.68354 10.7328 3.34479 10.9208 3.09945 11.1886C2.88132 11.4248 2.71631 11.7049 2.61552 12.0102C2.50298 12.3557 2.50298 12.7417 2.5041 13.516L2.50635 14.1496C2.50748 14.9183 2.50973 15.302 2.6234 15.6453C2.72377 15.9487 2.88758 16.2272 3.10395 16.4623C3.34929 16.7279 3.68466 16.9147 4.35653 17.2884L4.75943 17.5123C4.82808 17.5506 4.86297 17.5686 4.89561 17.5889C5.24828 17.8003 5.53631 18.1043 5.72841 18.4678L5.80382 18.6029C5.99391 18.9618 6.08335 19.3654 6.06266 19.771L6.05478 20.2291C6.04128 21.0011 6.03565 21.3883 6.14369 21.7338C6.23935 22.0399 6.39916 22.3224 6.61299 22.5621C6.85383 22.8322 7.1892 23.0246 7.8577 23.4106L8.41365 23.7314C9.08102 24.1151 9.41414 24.3076 9.76865 24.3807C10.0819 24.4456 10.4053 24.4429 10.7174 24.3729C11.0708 24.2941 11.4005 24.096 12.0611 23.6999L12.4595 23.4613C12.8027 23.2403 13.1995 23.117 13.6074 23.1045H13.9C14.2579 23.1158 14.6091 23.2137 14.9242 23.3881L15.0277 23.45L15.4509 23.7044C16.1149 24.1028 16.4457 24.3008 16.8002 24.3796C17.1133 24.4505 17.438 24.4535 17.7523 24.3886C18.1068 24.3143 18.4422 24.1196 19.1096 23.7325L19.6667 23.4095C20.3284 23.0246 20.6604 22.8322 20.899 22.5632C21.1128 22.3235 21.2704 22.0421 21.366 21.7371C21.473 21.3939 21.4673 21.0124 21.4538 20.2539L21.4448 19.7587C21.4225 19.3011 21.5403 18.8476 21.7824 18.4588L21.8556 18.335C22.0454 18.0287 22.3059 17.7724 22.6153 17.5877L22.739 17.5191L22.7413 17.518L23.1476 17.2929C23.8251 16.917 24.1638 16.7302 24.4103 16.4623C24.6286 16.226 24.7929 15.9446 24.8931 15.6408C25.0056 15.2975 25.0056 14.9126 25.0034 14.1474L25.0011 13.5014C25 12.7327 24.9989 12.3478 24.8852 12.0046C24.7843 11.7015 24.6201 11.4234 24.4035 11.1886C24.1593 10.923 23.8239 10.7362 23.1532 10.3637L23.151 10.3626Z" stroke="black" stroke-width="3.33333" stroke-linecap="round" stroke-linejoin="round"/>
<path d="M9.25391 13.8259C9.25391 15.0198 9.72819 16.1648 10.5724 17.009C11.4166 17.8533 12.5616 18.3275 13.7556 18.3275C14.9495 18.3275 16.0945 17.8533 16.9387 17.009C17.7829 16.1648 18.2572 15.0198 18.2572 13.8259C18.2572 12.632 17.7829 11.4869 16.9387 10.6427C16.0945 9.7985 14.9495 9.32422 13.7556 9.32422C12.5616 9.32422 11.4166 9.7985 10.5724 10.6427C9.72819 11.4869 9.25391 12.632 9.25391 13.8259Z" stroke="black" stroke-width="3.33333" stroke-linecap="round" stroke-linejoin="round"/>
</svg>
