<svg width="30" height="30" viewBox="0 0 30 30" fill="none" xmlns="http://www.w3.org/2000/svg">
<mask id="mask0_31_1111" style="mask-type:luminance" maskUnits="userSpaceOnUse" x="0" y="0" width="30" height="30">
<path d="M0 0H30V30H0V0Z" fill="white"/>
</mask>
<g mask="url(#mask0_31_1111)">
<mask id="mask1_31_1111" style="mask-type:luminance" maskUnits="userSpaceOnUse" x="0" y="0" width="30" height="30">
<path d="M16.5911 0.831338C17.5149 2.14258 19.2437 2.60585 20.6992 1.93202C21.2753 1.66561 21.9447 1.69573 22.4943 2.01307C23.0438 2.33041 23.4046 2.89499 23.4619 3.52692C23.6062 5.12429 24.872 6.39008 26.4693 6.53437C27.1013 6.5916 27.6658 6.95247 27.9832 7.50199C28.3005 8.05151 28.3306 8.72096 28.0642 9.29704C27.3904 10.7526 27.8537 12.4814 29.1649 13.4052C29.6838 13.7707 29.9923 14.3654 29.9923 15.0001C29.9923 15.6347 29.6838 16.2294 29.1649 16.595C27.8537 17.5188 27.3904 19.2476 28.0642 20.7031C28.3306 21.2792 28.3005 21.9486 27.9832 22.4982C27.6658 23.0477 27.1013 23.4086 26.4693 23.4658C24.872 23.6101 23.6062 24.8759 23.4619 26.4732C23.4046 27.1052 23.0438 27.6697 22.4943 27.9871C21.9447 28.3044 21.2753 28.3345 20.6992 28.0681C19.2437 27.3943 17.5149 27.8576 16.5911 29.1688C16.2255 29.6877 15.6308 29.9962 14.9962 29.9962C14.3615 29.9962 13.7668 29.6877 13.4013 29.1688C12.4775 27.8576 10.7487 27.3943 9.29313 28.0681C8.71705 28.3345 8.04761 28.3044 7.49808 27.9871C6.94856 27.6697 6.58769 27.1052 6.53047 26.4732C6.38617 24.8759 5.12038 23.6101 3.52302 23.4658C2.89108 23.4086 2.3265 23.0477 2.00916 22.4982C1.69183 21.9486 1.66171 21.2792 1.92812 20.7031C2.60195 19.2476 2.13867 17.5188 0.827431 16.595C0.308575 16.2294 0 15.6347 0 15.0001C0 14.3654 0.308575 13.7707 0.827431 13.4052C2.13867 12.4814 2.60195 10.7526 1.92812 9.29704C1.66171 8.72096 1.69183 8.05151 2.00916 7.50199C2.3265 6.95247 2.89108 6.5916 3.52302 6.53437C5.12038 6.39008 6.38617 5.12429 6.53047 3.52692C6.58769 2.89499 6.94856 2.33041 7.49808 2.01307C8.04761 1.69573 8.71705 1.66561 9.29313 1.93202C10.7487 2.60585 12.4775 2.14258 13.4013 0.831338C13.7668 0.312482 14.3615 0.00390625 14.9962 0.00390625C15.6308 0.00390625 16.2255 0.312482 16.5911 0.831338Z" fill="white"/>
</mask>
<g mask="url(#mask1_31_1111)">
<path d="M-1.4375 -1.43262H31.4281V31.433H-1.4375V-1.43262Z" fill="url(#paint0_linear_31_1111)"/>
</g>
</g>
<path d="M8 14.375C8 14.375 12.2609 20 12.8696 20C13.4783 20 22 10 22 10" stroke="white" stroke-width="2" stroke-linecap="round"/>
<defs>
<linearGradient id="paint0_linear_31_1111" x1="-1.4375" y1="2.67559" x2="36.3145" y2="4.9534" gradientUnits="userSpaceOnUse">
<stop offset="0.04" stop-color="#0052FF"/>
<stop offset="0.99" stop-color="#C7F490"/>
</linearGradient>
</defs>
</svg>
