<svg width="40" height="40" viewBox="0 0 40 40" fill="none" xmlns="http://www.w3.org/2000/svg">
<g clip-path="url(#clip0_31_1146)">
<path d="M19.1406 15.6177C19.4156 14.7927 20.5806 14.7927 20.8556 15.6177L22.4681 20.4602C22.823 21.5247 23.421 22.4919 24.2147 23.2851C25.0083 24.0783 25.9759 24.6758 27.0406 25.0302L31.8806 26.6427C32.7056 26.9177 32.7056 28.0827 31.8806 28.3577L27.0381 29.9702C25.9736 30.3251 25.0064 30.9231 24.2131 31.7168C23.4199 32.5104 22.8224 33.478 22.4681 34.5427L20.8556 39.3827C20.7963 39.5633 20.6814 39.7206 20.5275 39.8322C20.3735 39.9437 20.1882 40.0037 19.9981 40.0037C19.8079 40.0037 19.6227 39.9437 19.4687 39.8322C19.3147 39.7206 19.1999 39.5633 19.1406 39.3827L17.5281 34.5402C17.1734 33.4759 16.5758 32.5089 15.7825 31.7157C14.9893 30.9225 14.0223 30.3248 12.9581 29.9702L8.11556 28.3577C7.93491 28.2984 7.77759 28.1835 7.66606 28.0296C7.55453 27.8756 7.49449 27.6903 7.49449 27.5002C7.49449 27.31 7.55453 27.1248 7.66606 26.9708C7.77759 26.8168 7.93491 26.702 8.11556 26.6427L12.9581 25.0302C14.0223 24.6755 14.9893 24.0779 15.7825 23.2846C16.5758 22.4914 17.1734 21.5244 17.5281 20.4602L19.1406 15.6177ZM9.48306 2.87016C9.51891 2.7619 9.58797 2.66769 9.68042 2.60091C9.77287 2.53414 9.88402 2.4982 9.99806 2.4982C10.1121 2.4982 10.2233 2.53414 10.3157 2.60091C10.4082 2.66769 10.4772 2.7619 10.5131 2.87016L11.4806 5.77516C11.9131 7.07016 12.9281 8.08516 14.2231 8.51766L17.1281 9.48516C17.2363 9.52101 17.3305 9.59007 17.3973 9.68252C17.4641 9.77497 17.5 9.88612 17.5 10.0002C17.5 10.1142 17.4641 10.2254 17.3973 10.3178C17.3305 10.4103 17.2363 10.4793 17.1281 10.5152L14.2231 11.4827C13.584 11.6948 13.0033 12.0531 12.5272 12.5293C12.051 13.0054 11.6927 13.5861 11.4806 14.2252L10.5131 17.1302C10.4772 17.2384 10.4082 17.3326 10.3157 17.3994C10.2233 17.4662 10.1121 17.5021 9.99806 17.5021C9.88402 17.5021 9.77287 17.4662 9.68042 17.3994C9.58797 17.3326 9.51891 17.2384 9.48306 17.1302L8.51556 14.2252C8.30347 13.5861 7.94509 13.0054 7.46896 12.5293C6.99284 12.0531 6.41212 11.6948 5.77306 11.4827L2.86806 10.5152C2.7598 10.4793 2.66558 10.4103 2.59881 10.3178C2.53203 10.2254 2.49609 10.1142 2.49609 10.0002C2.49609 9.88612 2.53203 9.77497 2.59881 9.68252C2.66558 9.59007 2.7598 9.52101 2.86806 9.48516L5.77306 8.51766C6.41212 8.30557 6.99284 7.94719 7.46896 7.47107C7.94509 6.99494 8.30347 6.41423 8.51556 5.77516L9.48306 2.87016ZM27.1556 0.247663C27.1802 0.176479 27.2265 0.114753 27.2879 0.0710668C27.3493 0.027381 27.4227 0.00390625 27.4981 0.00390625C27.5734 0.00390625 27.6469 0.027381 27.7083 0.0710668C27.7696 0.114753 27.8159 0.176479 27.8406 0.247663L28.4856 2.18266C28.7731 3.04766 29.4506 3.72516 30.3156 4.01266L32.2506 4.65766C32.3217 4.68234 32.3835 4.72859 32.4272 4.78997C32.4708 4.85135 32.4943 4.92482 32.4943 5.00016C32.4943 5.0755 32.4708 5.14897 32.4272 5.21036C32.3835 5.27174 32.3217 5.31798 32.2506 5.34266L30.3156 5.98766C29.8897 6.13016 29.5027 6.36963 29.1851 6.6872C28.8675 7.00477 28.6281 7.39176 28.4856 7.81766L27.8406 9.75266C27.8159 9.82385 27.7696 9.88557 27.7083 9.92926C27.6469 9.97295 27.5734 9.99642 27.4981 9.99642C27.4227 9.99642 27.3493 9.97295 27.2879 9.92926C27.2265 9.88557 27.1802 9.82385 27.1556 9.75266L26.5106 7.81766C26.3681 7.39176 26.1286 7.00477 25.811 6.6872C25.4935 6.36963 25.1065 6.13016 24.6806 5.98766L22.7481 5.34266C22.6769 5.31798 22.6152 5.27174 22.5715 5.21036C22.5278 5.14897 22.5043 5.0755 22.5043 5.00016C22.5043 4.92482 22.5278 4.85135 22.5715 4.78997C22.6152 4.72859 22.6769 4.68234 22.7481 4.65766L24.6831 4.01266C25.5481 3.72516 26.2256 3.04766 26.5131 2.18266L27.1556 0.247663Z" fill="url(#paint0_linear_31_1146)"/>
</g>
<defs>
<linearGradient id="paint0_linear_31_1146" x1="1.99805" y1="-1.99976" x2="35.4539" y2="2.39988" gradientUnits="userSpaceOnUse">
<stop stop-color="#0052FF"/>
<stop offset="0.471" stop-color="#BAFA53"/>
<stop offset="0.862469" stop-color="#0052FF"/>
</linearGradient>
<clipPath id="clip0_31_1146">
<rect width="40" height="40" fill="white"/>
</clipPath>
</defs>
</svg>
