<svg width="30" height="30" viewBox="0 0 30 30" fill="none" xmlns="http://www.w3.org/2000/svg">
<mask id="mask0_31_1245" style="mask-type:luminance" maskUnits="userSpaceOnUse" x="2" y="2" width="26" height="26">
<path d="M2.34375 2.34375H27.6562V27.6562H2.34375V2.34375Z" fill="white"/>
</mask>
<g mask="url(#mask0_31_1245)">
<path d="M27.3438 13.1187V19.2188C27.3404 21.4555 26.4504 23.5997 24.8688 25.1813C23.2872 26.7629 21.143 27.6529 18.9062 27.6562H10.7812C8.5445 27.6529 6.40031 26.7629 4.81869 25.1813C3.23707 23.5997 2.34706 21.4555 2.34375 19.2188V11.0938C2.34706 8.857 3.23707 6.71281 4.81869 5.13119C6.40031 3.54957 8.5445 2.65956 10.7812 2.65625H16.8687C17.1174 2.65625 17.3558 2.75502 17.5317 2.93084C17.7075 3.10665 17.8062 3.34511 17.8062 3.59375C17.8062 3.84239 17.7075 4.08085 17.5317 4.25666C17.3558 4.43248 17.1174 4.53125 16.8687 4.53125H10.7812C9.04077 4.53125 7.37157 5.22265 6.14086 6.45336C4.91015 7.68407 4.21875 9.35327 4.21875 11.0938V14.2188H7.34375C8.25543 14.2188 9.12977 14.5809 9.77443 15.2256C10.4191 15.8702 10.7812 16.7446 10.7812 17.6562C10.7812 18.0707 10.9459 18.4681 11.2389 18.7611C11.5319 19.0541 11.9293 19.2188 12.3438 19.2188H17.3438C17.7571 19.2155 18.1527 19.0498 18.445 18.7575C18.7373 18.4652 18.903 18.0696 18.9062 17.6562C18.9029 17.2039 18.9896 16.7554 19.1611 16.3369C19.3327 15.9183 19.5858 15.538 19.9057 15.2182C20.2255 14.8983 20.6058 14.6452 21.0244 14.4736C21.4429 14.3021 21.8914 14.2154 22.3438 14.2188H25.4688V13.1187C25.4688 12.8701 25.5675 12.6317 25.7433 12.4558C25.9192 12.28 26.1576 12.1812 26.4062 12.1812C26.6549 12.1812 26.8933 12.28 27.0692 12.4558C27.245 12.6317 27.3438 12.8701 27.3438 13.1187Z" fill="black"/>
<path d="M23.5938 10.4688C24.6712 10.4688 25.7045 10.0407 26.4664 9.27887C27.2282 8.517 27.6562 7.48369 27.6562 6.40625C27.6562 5.32881 27.2282 4.2955 26.4664 3.53363C25.7045 2.77176 24.6712 2.34375 23.5938 2.34375C22.5163 2.34375 21.483 2.77176 20.7211 3.53363C19.9593 4.2955 19.5312 5.32881 19.5312 6.40625C19.5312 7.48369 19.9593 8.517 20.7211 9.27887C21.483 10.0407 22.5163 10.4688 23.5938 10.4688Z" fill="#0A0B0D"/>
</g>
</svg>
