<svg width="30" height="30" viewBox="0 0 30 30" fill="none" xmlns="http://www.w3.org/2000/svg">
<path d="M5 24.6875C5 23.1957 5.59263 21.7649 6.64752 20.71C7.70242 19.6551 9.13316 19.0625 10.625 19.0625H21.875C23.3668 19.0625 24.7976 19.6551 25.8525 20.71C26.9074 21.7649 27.5 23.1957 27.5 24.6875C27.5 25.4334 27.2037 26.1488 26.6762 26.6762C26.1488 27.2037 25.4334 27.5 24.6875 27.5H7.8125C7.06658 27.5 6.35121 27.2037 5.82376 26.6762C5.29632 26.1488 5 25.4334 5 24.6875Z" stroke="black" stroke-width="3.33333" stroke-linejoin="round"/>
<path d="M16.25 13.4375C18.58 13.4375 20.4688 11.5487 20.4688 9.21875C20.4688 6.8888 18.58 5 16.25 5C13.92 5 12.0312 6.8888 12.0312 9.21875C12.0312 11.5487 13.92 13.4375 16.25 13.4375Z" stroke="black" stroke-width="3.33333"/>
</svg>
