<svg width="29" height="29" viewBox="0 0 29 29" fill="none" xmlns="http://www.w3.org/2000/svg">
<g clip-path="url(#clip0_31_1240)">
<path fill-rule="evenodd" clip-rule="evenodd" d="M12.6879 2.41699C11.0501 2.41713 9.43614 2.80893 7.98057 3.55971C6.525 4.31048 5.27008 5.39845 4.32051 6.73286C3.37093 8.06727 2.75423 9.60941 2.52187 11.2306C2.2895 12.8518 2.44821 14.5051 2.98474 16.0525C3.52128 17.5999 4.42008 18.9966 5.60617 20.126C6.79226 21.2554 8.23124 22.0848 9.80305 22.5449C11.3749 23.0051 13.0339 23.0827 14.6418 22.7713C16.2497 22.4598 17.7598 21.7684 19.0462 20.7547L23.459 25.1675C23.6869 25.3876 23.9921 25.5094 24.309 25.5066C24.6258 25.5039 24.9288 25.3768 25.1529 25.1528C25.3769 24.9287 25.504 24.6257 25.5067 24.3089C25.5095 23.992 25.3877 23.6868 25.1676 23.4589L20.7548 19.0461C21.9486 17.5316 22.6919 15.7116 22.8997 13.7943C23.1074 11.8771 22.7712 9.9401 21.9295 8.20502C21.0878 6.46994 19.7747 5.00688 18.1403 3.98327C16.5059 2.95966 14.6164 2.41686 12.6879 2.41699ZM4.83376 12.6878C4.83376 10.6048 5.66125 8.60703 7.13419 7.13409C8.60714 5.66115 10.6049 4.83366 12.6879 4.83366C14.771 4.83366 16.7687 5.66115 18.2417 7.13409C19.7146 8.60703 20.5421 10.6048 20.5421 12.6878C20.5421 14.7709 19.7146 16.7686 18.2417 18.2416C16.7687 19.7145 14.771 20.542 12.6879 20.542C10.6049 20.542 8.60714 19.7145 7.13419 18.2416C5.66125 16.7686 4.83376 14.7709 4.83376 12.6878Z" fill="#C8C8C8"/>
</g>
<defs>
<clipPath id="clip0_31_1240">
<rect width="29" height="29" fill="white"/>
</clipPath>
</defs>
</svg>
