<svg width="24" height="26" viewBox="0 0 24 26" fill="none" xmlns="http://www.w3.org/2000/svg">
<path d="M14.7686 20.0288L7.9548 16.3125C7.30075 16.9618 6.46912 17.4028 5.56476 17.5801C4.66041 17.7574 3.7238 17.663 2.87304 17.3087C2.02227 16.9545 1.29542 16.3563 0.784133 15.5896C0.272844 14.8228 0 13.9219 0 13.0003C0 12.0787 0.272844 11.1778 0.784133 10.4111C1.29542 9.64434 2.02227 9.04615 2.87304 8.69191C3.7238 8.33767 4.66041 8.24323 5.56476 8.42052C6.46912 8.5978 7.30075 9.03887 7.9548 9.6881L14.7686 5.97186C14.5349 4.87544 14.7037 3.73153 15.2441 2.74933C15.7845 1.76712 16.6603 1.01225 17.7116 0.62276C18.7628 0.23327 19.9191 0.235189 20.969 0.628164C22.0189 1.02114 22.8923 1.77891 23.4294 2.7629C23.9666 3.7469 24.1315 4.89136 23.8942 5.987C23.6569 7.08264 23.0331 8.05625 22.1369 8.72978C21.2408 9.4033 20.1321 9.73174 19.0137 9.65503C17.8953 9.57832 16.8418 9.10159 16.046 8.31202L9.23222 12.0283C9.36795 12.6687 9.36795 13.3306 9.23222 13.971L16.046 17.6886C16.8418 16.899 17.8953 16.4223 19.0137 16.3456C20.1321 16.2689 21.2408 16.5973 22.1369 17.2709C23.0331 17.9444 23.6569 18.918 23.8942 20.0136C24.1315 21.1093 23.9666 22.2537 23.4294 23.2377C22.8923 24.2217 22.0189 24.9795 20.969 25.3725C19.9191 25.7655 18.7628 25.7674 17.7116 25.3779C16.6603 24.9884 15.7845 24.2335 15.2441 23.2513C14.7037 22.2691 14.5349 21.1252 14.7686 20.0288Z" fill="black"/>
</svg>
