<svg width="30" height="30" viewBox="0 0 30 30" fill="none" xmlns="http://www.w3.org/2000/svg">
<path d="M8.125 9.375C8.125 9.70652 8.2567 10.0245 8.49112 10.2589C8.72554 10.4933 9.04348 10.625 9.375 10.625C9.70652 10.625 10.0245 10.4933 10.2589 10.2589C10.4933 10.0245 10.625 9.70652 10.625 9.375C10.625 9.04348 10.4933 8.72554 10.2589 8.49112C10.0245 8.2567 9.70652 8.125 9.375 8.125C9.04348 8.125 8.72554 8.2567 8.49112 8.49112C8.2567 8.72554 8.125 9.04348 8.125 9.375Z" stroke="black" stroke-width="3.33333" stroke-linecap="round" stroke-linejoin="round"/>
<path d="M3.75 7.49964V13.964C3.75014 14.6269 4.0136 15.2627 4.48243 15.7313L14.119 25.3679C14.6839 25.9327 15.45 26.25 16.2488 26.25C17.0476 26.25 17.8137 25.9327 18.3786 25.3679L25.3679 18.3786C25.9327 17.8137 26.25 17.0476 26.25 16.2488C26.25 15.45 25.9327 14.6839 25.3679 14.119L15.7313 4.48243C15.2627 4.0136 14.6269 3.75014 13.964 3.75H7.49964C6.50517 3.75 5.55144 4.14505 4.84824 4.84824C4.14505 5.55144 3.75 6.50517 3.75 7.49964Z" stroke="black" stroke-width="3.33333" stroke-linecap="round" stroke-linejoin="round"/>
</svg>
