<svg width="30" height="30" viewBox="0 0 30 30" fill="none" xmlns="http://www.w3.org/2000/svg">
<path d="M7.5 25C6.125 25 4.94792 24.5104 3.96875 23.5312C2.98958 22.5521 2.5 21.375 2.5 20V10C2.5 8.625 2.98958 7.44792 3.96875 6.46875C4.94792 5.48958 6.125 5 7.5 5H22.5C23.875 5 25.0521 5.48958 26.0312 6.46875C27.0104 7.44792 27.5 8.625 27.5 10V20C27.5 21.375 27.0104 22.5521 26.0312 23.5312C25.0521 24.5104 23.875 25 22.5 25H7.5ZM7.5 10H22.5C22.9583 10 23.3958 10.0521 23.8125 10.1562C24.2292 10.2604 24.625 10.4271 25 10.6562V10C25 9.3125 24.7554 8.72417 24.2663 8.235C23.7771 7.74583 23.1883 7.50083 22.5 7.5H7.5C6.8125 7.5 6.22417 7.745 5.735 8.235C5.24583 8.725 5.00083 9.31333 5 10V10.6562C5.375 10.4271 5.77083 10.2604 6.1875 10.1562C6.60417 10.0521 7.04167 10 7.5 10ZM5.1875 14.0625L19.0938 17.4375C19.2812 17.4792 19.4688 17.4792 19.6562 17.4375C19.8438 17.3958 20.0208 17.3125 20.1875 17.1875L24.5312 13.5625C24.3021 13.25 24.0104 12.995 23.6562 12.7975C23.3021 12.6 22.9167 12.5008 22.5 12.5H7.5C6.95833 12.5 6.48458 12.6408 6.07875 12.9225C5.67292 13.2042 5.37583 13.5842 5.1875 14.0625Z" fill="#0A0B0D"/>
</svg>
